<svg width="676" height="2415" viewBox="0 0 676 2415" fill="none" xmlns="http://www.w3.org/2000/svg">
<g id="floor-7">
<rect width="676" height="2415" fill="white"/>
<g id="Left">
<rect width="252" height="2210" transform="translate(8 8)" fill="white"/>
<g id="Left Inner" clip-path="url(#clip0_157_2)">
<g id="Frame">
<mask id="path-1-inside-1_157_2" fill="white">
<path d="M80 26H260V706H80V26Z"/>
</mask>
<path d="M260 26H258V706H260H262V26H260Z" fill="#737373" mask="url(#path-1-inside-1_157_2)"/>
</g>
<g id="location-id-701">
<rect x="81" y="705" width="178" height="238" rx="11" stroke="#737373" stroke-width="2"/>
<g id="Frame 1">
<rect x="144" y="810" width="52" height="28" rx="4" fill="#A9B0E9"/>
<path id="number" d="M155.38 831.14C155.167 831.14 154.98 831.087 154.82 830.98C154.673 830.873 154.58 830.733 154.54 830.56C154.513 830.373 154.56 830.16 154.68 829.92L161.02 817.74V818.48H153.98C153.713 818.48 153.507 818.413 153.36 818.28C153.213 818.133 153.14 817.94 153.14 817.7C153.14 817.447 153.213 817.253 153.36 817.12C153.507 816.973 153.713 816.9 153.98 816.9H161.88C162.147 816.9 162.36 816.973 162.52 817.12C162.693 817.253 162.78 817.447 162.78 817.7C162.78 817.913 162.753 818.1 162.7 818.26C162.647 818.407 162.567 818.58 162.46 818.78L156.42 830.52C156.313 830.733 156.173 830.893 156 831C155.84 831.093 155.633 831.14 155.38 831.14ZM169.992 831.18C168.366 831.18 167.126 830.56 166.272 829.32C165.432 828.067 165.012 826.273 165.012 823.94C165.012 822.353 165.199 821.027 165.572 819.96C165.959 818.893 166.519 818.087 167.252 817.54C167.999 816.993 168.912 816.72 169.992 816.72C171.632 816.72 172.872 817.333 173.712 818.56C174.552 819.773 174.972 821.56 174.972 823.92C174.972 825.48 174.779 826.8 174.392 827.88C174.019 828.96 173.466 829.78 172.732 830.34C171.999 830.9 171.086 831.18 169.992 831.18ZM169.992 829.6C171.059 829.6 171.852 829.14 172.372 828.22C172.892 827.3 173.152 825.867 173.152 823.92C173.152 821.973 172.892 820.553 172.372 819.66C171.866 818.753 171.072 818.3 169.992 818.3C168.926 818.3 168.132 818.753 167.612 819.66C167.092 820.553 166.832 821.973 166.832 823.92C166.832 825.867 167.092 827.3 167.612 828.22C168.132 829.14 168.926 829.6 169.992 829.6ZM179.084 831C178.831 831 178.631 830.927 178.484 830.78C178.338 830.633 178.264 830.44 178.264 830.2C178.264 829.947 178.338 829.753 178.484 829.62C178.631 829.487 178.831 829.42 179.084 829.42H181.604V818.44H182.564L179.644 820.32C179.458 820.44 179.278 820.493 179.104 820.48C178.944 820.453 178.804 820.387 178.684 820.28C178.564 820.16 178.484 820.02 178.444 819.86C178.404 819.7 178.411 819.54 178.464 819.38C178.531 819.207 178.664 819.067 178.864 818.96L181.624 817.16C181.824 817.04 182.011 816.947 182.184 816.88C182.371 816.8 182.551 816.76 182.724 816.76C182.924 816.76 183.098 816.82 183.244 816.94C183.391 817.06 183.464 817.253 183.464 817.52V829.42H185.784C186.051 829.42 186.251 829.487 186.384 829.62C186.531 829.753 186.604 829.947 186.604 830.2C186.604 830.453 186.531 830.653 186.384 830.8C186.251 830.933 186.051 831 185.784 831H179.084Z" fill="#0A0A0A"/>
</g>
</g>
<g id="location-id-702">
<rect x="81" y="943" width="178" height="198" rx="11" stroke="#737373" stroke-width="2"/>
<g id="Frame 1_2">
<rect x="104" y="1028" width="132" height="28" rx="4" fill="#A9B0E9"/>
<path id="number_2" d="M114.62 1049.14C114.327 1049.14 114.1 1049.06 113.94 1048.9C113.78 1048.73 113.7 1048.49 113.7 1048.18V1035.9C113.7 1035.58 113.787 1035.33 113.96 1035.16C114.133 1034.99 114.38 1034.9 114.7 1034.9H124.46C124.793 1034.9 125.047 1034.99 125.22 1035.16C125.393 1035.33 125.48 1035.58 125.48 1035.9V1048.18C125.48 1048.49 125.4 1048.73 125.24 1048.9C125.08 1049.06 124.847 1049.14 124.54 1049.14C124.247 1049.14 124.02 1049.06 123.86 1048.9C123.7 1048.73 123.62 1048.49 123.62 1048.18V1036.48H115.56V1048.18C115.56 1048.49 115.48 1048.73 115.32 1048.9C115.173 1049.06 114.94 1049.14 114.62 1049.14ZM136.276 1049.14C135.983 1049.14 135.756 1049.06 135.596 1048.9C135.436 1048.74 135.356 1048.51 135.356 1048.2V1040.72H131.636V1041.92C131.636 1042.93 131.583 1043.83 131.476 1044.62C131.37 1045.39 131.203 1046.07 130.976 1046.64C130.763 1047.21 130.476 1047.69 130.116 1048.08C129.77 1048.47 129.336 1048.78 128.816 1049.02C128.616 1049.11 128.43 1049.14 128.256 1049.1C128.083 1049.07 127.936 1049 127.816 1048.88C127.71 1048.76 127.636 1048.62 127.596 1048.46C127.57 1048.3 127.59 1048.14 127.656 1047.98C127.723 1047.82 127.856 1047.69 128.056 1047.58C128.43 1047.37 128.736 1047.11 128.976 1046.8C129.216 1046.48 129.403 1046.09 129.536 1045.64C129.683 1045.19 129.783 1044.65 129.836 1044.04C129.903 1043.43 129.936 1042.71 129.936 1041.88V1040.3C129.936 1039.97 130.023 1039.71 130.196 1039.54C130.383 1039.35 130.643 1039.26 130.976 1039.26H136.156C136.49 1039.26 136.743 1039.35 136.916 1039.54C137.09 1039.71 137.176 1039.97 137.176 1040.3V1048.2C137.176 1048.51 137.096 1048.74 136.936 1048.9C136.776 1049.06 136.556 1049.14 136.276 1049.14ZM143.398 1049.18C142.732 1049.18 142.125 1049.05 141.578 1048.78C141.045 1048.51 140.625 1048.15 140.318 1047.7C140.025 1047.25 139.878 1046.74 139.878 1046.18C139.878 1045.46 140.058 1044.89 140.418 1044.48C140.778 1044.07 141.385 1043.77 142.238 1043.6C143.092 1043.41 144.238 1043.32 145.678 1043.32H146.618V1044.48H145.718C144.692 1044.48 143.878 1044.53 143.278 1044.62C142.692 1044.71 142.278 1044.88 142.038 1045.12C141.798 1045.35 141.678 1045.67 141.678 1046.08C141.678 1046.6 141.858 1047.03 142.218 1047.36C142.592 1047.69 143.098 1047.86 143.738 1047.86C144.245 1047.86 144.692 1047.74 145.078 1047.5C145.465 1047.25 145.772 1046.91 145.998 1046.5C146.225 1046.07 146.338 1045.59 146.338 1045.04V1042.74C146.338 1041.95 146.178 1041.39 145.858 1041.04C145.538 1040.68 144.998 1040.5 144.238 1040.5C143.798 1040.5 143.345 1040.56 142.878 1040.68C142.412 1040.8 141.925 1040.99 141.418 1041.24C141.218 1041.33 141.045 1041.37 140.898 1041.34C140.752 1041.3 140.632 1041.22 140.538 1041.1C140.458 1040.97 140.412 1040.83 140.398 1040.68C140.398 1040.52 140.432 1040.37 140.498 1040.22C140.578 1040.07 140.712 1039.97 140.898 1039.9C141.485 1039.61 142.065 1039.4 142.638 1039.28C143.225 1039.15 143.772 1039.08 144.278 1039.08C145.145 1039.08 145.858 1039.22 146.418 1039.5C146.978 1039.77 147.398 1040.19 147.678 1040.76C147.958 1041.32 148.098 1042.04 148.098 1042.92V1048.2C148.098 1048.51 148.025 1048.74 147.878 1048.9C147.732 1049.06 147.518 1049.14 147.238 1049.14C146.972 1049.14 146.758 1049.06 146.598 1048.9C146.452 1048.74 146.378 1048.51 146.378 1048.2V1046.78H146.558C146.452 1047.27 146.252 1047.7 145.958 1048.06C145.665 1048.42 145.298 1048.7 144.858 1048.9C144.432 1049.09 143.945 1049.18 143.398 1049.18ZM152.097 1049.14C151.804 1049.14 151.577 1049.06 151.417 1048.9C151.257 1048.74 151.177 1048.51 151.177 1048.2V1040.04C151.177 1039.73 151.257 1039.51 151.417 1039.36C151.577 1039.2 151.804 1039.12 152.097 1039.12C152.391 1039.12 152.611 1039.2 152.757 1039.36C152.917 1039.51 152.997 1039.73 152.997 1040.04V1043.26H158.077V1040.04C158.077 1039.73 158.151 1039.51 158.297 1039.36C158.457 1039.2 158.684 1039.12 158.977 1039.12C159.271 1039.12 159.497 1039.2 159.657 1039.36C159.817 1039.51 159.897 1039.73 159.897 1040.04V1048.2C159.897 1048.51 159.817 1048.74 159.657 1048.9C159.497 1049.06 159.271 1049.14 158.977 1049.14C158.684 1049.14 158.457 1049.06 158.297 1048.9C158.151 1048.74 158.077 1048.51 158.077 1048.2V1044.72H152.997V1048.2C152.997 1048.51 152.924 1048.74 152.777 1048.9C152.631 1049.06 152.404 1049.14 152.097 1049.14ZM167.513 1049.18C166.46 1049.18 165.553 1048.98 164.793 1048.58C164.046 1048.17 163.466 1047.59 163.053 1046.84C162.64 1046.08 162.433 1045.19 162.433 1044.16C162.433 1043.15 162.633 1042.26 163.033 1041.5C163.446 1040.74 164.006 1040.15 164.713 1039.72C165.433 1039.29 166.253 1039.08 167.173 1039.08C167.826 1039.08 168.413 1039.19 168.933 1039.42C169.466 1039.63 169.92 1039.95 170.293 1040.36C170.666 1040.77 170.946 1041.28 171.133 1041.88C171.333 1042.47 171.433 1043.13 171.433 1043.88C171.433 1044.09 171.366 1044.26 171.233 1044.38C171.113 1044.49 170.933 1044.54 170.693 1044.54H163.853V1043.38H170.233L169.893 1043.66C169.893 1042.97 169.786 1042.38 169.573 1041.9C169.373 1041.41 169.073 1041.03 168.673 1040.78C168.286 1040.53 167.8 1040.4 167.213 1040.4C166.573 1040.4 166.026 1040.55 165.573 1040.86C165.12 1041.15 164.773 1041.57 164.533 1042.12C164.293 1042.65 164.173 1043.27 164.173 1043.98V1044.1C164.173 1045.3 164.46 1046.21 165.033 1046.82C165.606 1047.43 166.433 1047.74 167.513 1047.74C167.94 1047.74 168.373 1047.69 168.813 1047.58C169.266 1047.47 169.7 1047.28 170.113 1047C170.313 1046.88 170.493 1046.83 170.653 1046.84C170.826 1046.84 170.966 1046.89 171.073 1047C171.18 1047.09 171.246 1047.21 171.273 1047.36C171.3 1047.49 171.28 1047.64 171.213 1047.8C171.146 1047.96 171.02 1048.1 170.833 1048.22C170.393 1048.53 169.866 1048.77 169.253 1048.94C168.653 1049.1 168.073 1049.18 167.513 1049.18ZM176.872 1049.14C176.578 1049.14 176.352 1049.06 176.192 1048.9C176.032 1048.74 175.952 1048.51 175.952 1048.2V1040.72H173.112C172.578 1040.72 172.312 1040.47 172.312 1039.98C172.312 1039.75 172.385 1039.58 172.532 1039.46C172.678 1039.33 172.872 1039.26 173.112 1039.26H180.592C181.138 1039.26 181.412 1039.5 181.412 1039.98C181.412 1040.22 181.338 1040.41 181.192 1040.54C181.058 1040.66 180.858 1040.72 180.592 1040.72H177.772V1048.2C177.772 1048.51 177.692 1048.74 177.532 1048.9C177.385 1049.06 177.165 1049.14 176.872 1049.14ZM186.015 1049.18C185.349 1049.18 184.742 1049.05 184.195 1048.78C183.662 1048.51 183.242 1048.15 182.935 1047.7C182.642 1047.25 182.495 1046.74 182.495 1046.18C182.495 1045.46 182.675 1044.89 183.035 1044.48C183.395 1044.07 184.002 1043.77 184.855 1043.6C185.709 1043.41 186.855 1043.32 188.295 1043.32H189.235V1044.48H188.335C187.309 1044.48 186.495 1044.53 185.895 1044.62C185.309 1044.71 184.895 1044.88 184.655 1045.12C184.415 1045.35 184.295 1045.67 184.295 1046.08C184.295 1046.6 184.475 1047.03 184.835 1047.36C185.209 1047.69 185.715 1047.86 186.355 1047.86C186.862 1047.86 187.309 1047.74 187.695 1047.5C188.082 1047.25 188.389 1046.91 188.615 1046.5C188.842 1046.07 188.955 1045.59 188.955 1045.04V1042.74C188.955 1041.95 188.795 1041.39 188.475 1041.04C188.155 1040.68 187.615 1040.5 186.855 1040.5C186.415 1040.5 185.962 1040.56 185.495 1040.68C185.029 1040.8 184.542 1040.99 184.035 1041.24C183.835 1041.33 183.662 1041.37 183.515 1041.34C183.369 1041.3 183.249 1041.22 183.155 1041.1C183.075 1040.97 183.029 1040.83 183.015 1040.68C183.015 1040.52 183.049 1040.37 183.115 1040.22C183.195 1040.07 183.329 1039.97 183.515 1039.9C184.102 1039.61 184.682 1039.4 185.255 1039.28C185.842 1039.15 186.389 1039.08 186.895 1039.08C187.762 1039.08 188.475 1039.22 189.035 1039.5C189.595 1039.77 190.015 1040.19 190.295 1040.76C190.575 1041.32 190.715 1042.04 190.715 1042.92V1048.2C190.715 1048.51 190.642 1048.74 190.495 1048.9C190.349 1049.06 190.135 1049.14 189.855 1049.14C189.589 1049.14 189.375 1049.06 189.215 1048.9C189.069 1048.74 188.995 1048.51 188.995 1048.2V1046.78H189.175C189.069 1047.27 188.869 1047.7 188.575 1048.06C188.282 1048.42 187.915 1048.7 187.475 1048.9C187.049 1049.09 186.562 1049.18 186.015 1049.18ZM194.694 1052.74C194.414 1052.74 194.194 1052.66 194.034 1052.5C193.874 1052.34 193.794 1052.11 193.794 1051.82V1040.04C193.794 1039.73 193.874 1039.51 194.034 1039.36C194.194 1039.2 194.414 1039.12 194.694 1039.12C194.988 1039.12 195.208 1039.2 195.354 1039.36C195.514 1039.51 195.594 1039.73 195.594 1040.04V1041.86L195.374 1041.5C195.588 1040.77 196.008 1040.18 196.634 1039.74C197.261 1039.3 198.014 1039.08 198.894 1039.08C199.761 1039.08 200.514 1039.29 201.154 1039.7C201.794 1040.1 202.294 1040.68 202.654 1041.44C203.014 1042.19 203.194 1043.08 203.194 1044.12C203.194 1045.15 203.014 1046.05 202.654 1046.82C202.308 1047.58 201.808 1048.17 201.154 1048.58C200.514 1048.98 199.761 1049.18 198.894 1049.18C198.028 1049.18 197.281 1048.96 196.654 1048.52C196.028 1048.08 195.608 1047.5 195.394 1046.78H195.614V1051.82C195.614 1052.11 195.534 1052.34 195.374 1052.5C195.214 1052.66 194.988 1052.74 194.694 1052.74ZM198.474 1047.74C199.048 1047.74 199.548 1047.6 199.974 1047.32C200.414 1047.04 200.754 1046.63 200.994 1046.1C201.234 1045.57 201.354 1044.91 201.354 1044.12C201.354 1042.95 201.094 1042.05 200.574 1041.44C200.054 1040.83 199.354 1040.52 198.474 1040.52C197.888 1040.52 197.374 1040.66 196.934 1040.94C196.508 1041.21 196.174 1041.61 195.934 1042.14C195.708 1042.67 195.594 1043.33 195.594 1044.12C195.594 1045.29 195.854 1046.19 196.374 1046.82C196.894 1047.43 197.594 1047.74 198.474 1047.74ZM206.588 1049.14C206.414 1049.14 206.261 1049.11 206.128 1049.04C206.008 1048.97 205.914 1048.87 205.848 1048.72C205.781 1048.57 205.748 1048.39 205.748 1048.16V1040C205.748 1039.72 205.821 1039.51 205.968 1039.36C206.114 1039.2 206.321 1039.12 206.588 1039.12C206.841 1039.12 207.041 1039.2 207.188 1039.36C207.334 1039.51 207.408 1039.72 207.408 1040V1047.22H206.888L212.528 1039.7C212.634 1039.55 212.768 1039.42 212.928 1039.3C213.088 1039.18 213.301 1039.12 213.568 1039.12C213.754 1039.12 213.908 1039.15 214.028 1039.22C214.148 1039.29 214.234 1039.39 214.287 1039.54C214.354 1039.67 214.388 1039.85 214.388 1040.08V1048.26C214.388 1048.53 214.314 1048.74 214.168 1048.9C214.034 1049.06 213.841 1049.14 213.588 1049.14C213.308 1049.14 213.094 1049.06 212.948 1048.9C212.814 1048.74 212.748 1048.53 212.748 1048.26V1041.02H213.268L207.628 1048.56C207.521 1048.71 207.388 1048.84 207.228 1048.96C207.068 1049.08 206.854 1049.14 206.588 1049.14ZM218.345 1049.14C218.172 1049.14 218.019 1049.11 217.885 1049.04C217.765 1048.97 217.672 1048.87 217.605 1048.72C217.539 1048.57 217.505 1048.39 217.505 1048.16V1040C217.505 1039.72 217.579 1039.51 217.725 1039.36C217.872 1039.2 218.079 1039.12 218.345 1039.12C218.599 1039.12 218.799 1039.2 218.945 1039.36C219.092 1039.51 219.165 1039.72 219.165 1040V1047.22H218.645L224.285 1039.7C224.392 1039.55 224.525 1039.42 224.685 1039.3C224.845 1039.18 225.059 1039.12 225.325 1039.12C225.512 1039.12 225.665 1039.15 225.785 1039.22C225.905 1039.29 225.992 1039.39 226.045 1039.54C226.112 1039.67 226.145 1039.85 226.145 1040.08V1048.26C226.145 1048.53 226.072 1048.74 225.925 1048.9C225.792 1049.06 225.599 1049.14 225.345 1049.14C225.065 1049.14 224.852 1049.06 224.705 1048.9C224.572 1048.74 224.505 1048.53 224.505 1048.26V1041.02H225.025L219.385 1048.56C219.279 1048.71 219.145 1048.84 218.985 1048.96C218.825 1049.08 218.612 1049.14 218.345 1049.14ZM221.825 1038.02C221.092 1038.02 220.425 1037.84 219.825 1037.48C219.225 1037.11 218.785 1036.55 218.505 1035.82C218.425 1035.62 218.412 1035.45 218.465 1035.32C218.532 1035.17 218.645 1035.07 218.805 1035.02C218.965 1034.97 219.105 1034.97 219.225 1035.04C219.359 1035.11 219.472 1035.24 219.565 1035.44C219.792 1035.92 220.092 1036.29 220.465 1036.54C220.852 1036.78 221.305 1036.9 221.825 1036.9C222.359 1036.9 222.812 1036.78 223.185 1036.54C223.559 1036.29 223.859 1035.92 224.085 1035.44C224.192 1035.24 224.305 1035.11 224.425 1035.04C224.545 1034.97 224.685 1034.97 224.845 1035.02C225.005 1035.07 225.112 1035.17 225.165 1035.32C225.232 1035.45 225.219 1035.62 225.125 1035.82C224.805 1036.55 224.359 1037.11 223.785 1037.48C223.212 1037.84 222.559 1038.02 221.825 1038.02Z" fill="#0A0A0A"/>
</g>
</g>
<g id="location-id-703">
<rect x="81" y="1141" width="178" height="318" rx="11" stroke="#737373" stroke-width="2"/>
<g id="Frame 1_3">
<rect x="144" y="1286" width="52" height="28" rx="4" fill="#A9B0E9"/>
<path id="number_3" d="M155.38 1307.14C155.167 1307.14 154.98 1307.09 154.82 1306.98C154.673 1306.87 154.58 1306.73 154.54 1306.56C154.513 1306.37 154.56 1306.16 154.68 1305.92L161.02 1293.74V1294.48H153.98C153.713 1294.48 153.507 1294.41 153.36 1294.28C153.213 1294.13 153.14 1293.94 153.14 1293.7C153.14 1293.45 153.213 1293.25 153.36 1293.12C153.507 1292.97 153.713 1292.9 153.98 1292.9H161.88C162.147 1292.9 162.36 1292.97 162.52 1293.12C162.693 1293.25 162.78 1293.45 162.78 1293.7C162.78 1293.91 162.753 1294.1 162.7 1294.26C162.647 1294.41 162.567 1294.58 162.46 1294.78L156.42 1306.52C156.313 1306.73 156.173 1306.89 156 1307C155.84 1307.09 155.633 1307.14 155.38 1307.14ZM169.992 1307.18C168.366 1307.18 167.126 1306.56 166.272 1305.32C165.432 1304.07 165.012 1302.27 165.012 1299.94C165.012 1298.35 165.199 1297.03 165.572 1295.96C165.959 1294.89 166.519 1294.09 167.252 1293.54C167.999 1292.99 168.912 1292.72 169.992 1292.72C171.632 1292.72 172.872 1293.33 173.712 1294.56C174.552 1295.77 174.972 1297.56 174.972 1299.92C174.972 1301.48 174.779 1302.8 174.392 1303.88C174.019 1304.96 173.466 1305.78 172.732 1306.34C171.999 1306.9 171.086 1307.18 169.992 1307.18ZM169.992 1305.6C171.059 1305.6 171.852 1305.14 172.372 1304.22C172.892 1303.3 173.152 1301.87 173.152 1299.92C173.152 1297.97 172.892 1296.55 172.372 1295.66C171.866 1294.75 171.072 1294.3 169.992 1294.3C168.926 1294.3 168.132 1294.75 167.612 1295.66C167.092 1296.55 166.832 1297.97 166.832 1299.92C166.832 1301.87 167.092 1303.3 167.612 1304.22C168.132 1305.14 168.926 1305.6 169.992 1305.6ZM181.804 1307.18C181.031 1307.18 180.258 1307.07 179.484 1306.86C178.711 1306.65 178.038 1306.33 177.464 1305.9C177.278 1305.77 177.151 1305.61 177.084 1305.44C177.018 1305.27 176.998 1305.11 177.024 1304.96C177.064 1304.8 177.144 1304.67 177.264 1304.56C177.384 1304.45 177.531 1304.39 177.704 1304.38C177.878 1304.35 178.064 1304.4 178.264 1304.52C178.838 1304.89 179.404 1305.17 179.964 1305.34C180.538 1305.5 181.131 1305.58 181.744 1305.58C182.398 1305.58 182.951 1305.49 183.404 1305.3C183.858 1305.1 184.198 1304.81 184.424 1304.44C184.664 1304.05 184.784 1303.59 184.784 1303.06C184.784 1302.26 184.524 1301.66 184.004 1301.26C183.484 1300.85 182.724 1300.64 181.724 1300.64H180.324C180.044 1300.64 179.831 1300.57 179.684 1300.44C179.538 1300.29 179.464 1300.1 179.464 1299.86C179.464 1299.61 179.538 1299.41 179.684 1299.28C179.831 1299.15 180.044 1299.08 180.324 1299.08H181.564C182.151 1299.08 182.651 1298.98 183.064 1298.78C183.478 1298.57 183.798 1298.27 184.024 1297.9C184.264 1297.53 184.384 1297.07 184.384 1296.54C184.384 1295.82 184.151 1295.27 183.684 1294.9C183.218 1294.51 182.544 1294.32 181.664 1294.32C181.091 1294.32 180.551 1294.41 180.044 1294.58C179.538 1294.74 179.024 1295.01 178.504 1295.4C178.331 1295.52 178.158 1295.58 177.984 1295.58C177.811 1295.57 177.664 1295.51 177.544 1295.4C177.438 1295.29 177.364 1295.17 177.324 1295.02C177.284 1294.86 177.291 1294.69 177.344 1294.52C177.398 1294.35 177.518 1294.19 177.704 1294.06C178.251 1293.63 178.878 1293.31 179.584 1293.08C180.304 1292.84 181.044 1292.72 181.804 1292.72C182.724 1292.72 183.511 1292.87 184.164 1293.16C184.831 1293.45 185.338 1293.87 185.684 1294.42C186.031 1294.95 186.204 1295.6 186.204 1296.36C186.204 1296.93 186.098 1297.46 185.884 1297.94C185.671 1298.41 185.364 1298.81 184.964 1299.14C184.578 1299.46 184.104 1299.69 183.544 1299.82V1299.6C184.518 1299.77 185.271 1300.18 185.804 1300.82C186.351 1301.45 186.624 1302.23 186.624 1303.18C186.624 1303.99 186.424 1304.71 186.024 1305.32C185.638 1305.92 185.084 1306.38 184.364 1306.7C183.644 1307.02 182.791 1307.18 181.804 1307.18Z" fill="#0A0A0A"/>
</g>
</g>
<g id="Frame_2">
<mask id="path-12-inside-2_157_2" fill="white">
<path d="M80 1458H260V2218H80V1458Z"/>
</mask>
<path d="M260 1458H258V2218H260H262V1458H260Z" fill="#737373" mask="url(#path-12-inside-2_157_2)"/>
</g>
</g>
</g>
<g id="Center" clip-path="url(#clip1_157_2)">
<g id="location-id-704">
<rect x="259" y="9" width="178" height="518" rx="11" stroke="#737373" stroke-width="2"/>
<g id="Frame 1_4">
<rect x="322" y="254" width="52" height="28" rx="4" fill="#A9B0E9"/>
<path id="number_4" d="M333.38 275.14C333.167 275.14 332.98 275.087 332.82 274.98C332.673 274.873 332.58 274.733 332.54 274.56C332.513 274.373 332.56 274.16 332.68 273.92L339.02 261.74V262.48H331.98C331.713 262.48 331.507 262.413 331.36 262.28C331.213 262.133 331.14 261.94 331.14 261.7C331.14 261.447 331.213 261.253 331.36 261.12C331.507 260.973 331.713 260.9 331.98 260.9H339.88C340.147 260.9 340.36 260.973 340.52 261.12C340.693 261.253 340.78 261.447 340.78 261.7C340.78 261.913 340.753 262.1 340.7 262.26C340.647 262.407 340.567 262.58 340.46 262.78L334.42 274.52C334.313 274.733 334.173 274.893 334 275C333.84 275.093 333.633 275.14 333.38 275.14ZM347.992 275.18C346.366 275.18 345.126 274.56 344.272 273.32C343.432 272.067 343.012 270.273 343.012 267.94C343.012 266.353 343.199 265.027 343.572 263.96C343.959 262.893 344.519 262.087 345.252 261.54C345.999 260.993 346.912 260.72 347.992 260.72C349.632 260.72 350.872 261.333 351.712 262.56C352.552 263.773 352.972 265.56 352.972 267.92C352.972 269.48 352.779 270.8 352.392 271.88C352.019 272.96 351.466 273.78 350.732 274.34C349.999 274.9 349.086 275.18 347.992 275.18ZM347.992 273.6C349.059 273.6 349.852 273.14 350.372 272.22C350.892 271.3 351.152 269.867 351.152 267.92C351.152 265.973 350.892 264.553 350.372 263.66C349.866 262.753 349.072 262.3 347.992 262.3C346.926 262.3 346.132 262.753 345.612 263.66C345.092 264.553 344.832 265.973 344.832 267.92C344.832 269.867 345.092 271.3 345.612 272.22C346.132 273.14 346.926 273.6 347.992 273.6ZM362.324 275.14C362.031 275.14 361.804 275.06 361.644 274.9C361.484 274.74 361.404 274.507 361.404 274.2V272.06H355.844C355.551 272.06 355.311 271.993 355.124 271.86C354.951 271.727 354.864 271.52 354.864 271.24C354.864 271.08 354.904 270.913 354.984 270.74C355.064 270.567 355.204 270.333 355.404 270.04L361.344 261.38C361.491 261.18 361.644 261.027 361.804 260.92C361.978 260.813 362.171 260.76 362.384 260.76C362.624 260.76 362.824 260.84 362.984 261C363.158 261.147 363.244 261.38 363.244 261.7V270.48H364.604C364.898 270.48 365.118 270.547 365.264 270.68C365.411 270.813 365.484 271.007 365.484 271.26C365.484 271.527 365.411 271.727 365.264 271.86C365.118 271.993 364.898 272.06 364.604 272.06H363.244V274.2C363.244 274.507 363.164 274.74 363.004 274.9C362.844 275.06 362.618 275.14 362.324 275.14ZM361.404 270.48V263.08H361.904L356.504 270.98V270.48H361.404Z" fill="#0A0A0A"/>
</g>
</g>
<g id="location-id-wall-704">
<rect width="176" height="180" transform="translate(260 528)" fill="white"/>
</g>
<g id="location-id-701-wall">
<rect x="260" y="706" width="176" height="240" rx="12" fill="white"/>
</g>
<g id="location-id-702-wall">
<rect x="260" y="944" width="176" height="200" rx="12" fill="white"/>
</g>
<g id="location-id-703-wall">
<rect x="260" y="1142" width="176" height="320" rx="12" fill="white"/>
</g>
<g id="Frame_3">
<rect x="260" y="1460" width="176" height="513" rx="12" fill="white"/>
</g>
<g id="location-id-wall-stairs7">
<rect x="260" y="1971" width="176" height="130" rx="12" fill="white"/>
</g>
<g id="location-id-wall-705">
<rect x="260" y="2099" width="176" height="110" rx="12" fill="white"/>
</g>
<g id="location-id-705">
<rect x="259" y="2208" width="178" height="198" rx="11" stroke="#737373" stroke-width="2"/>
<g id="Frame 1_5">
<rect x="322" y="2293" width="52" height="28" rx="4" fill="#A9B0E9"/>
<path id="number_5" d="M333.38 2314.14C333.167 2314.14 332.98 2314.09 332.82 2313.98C332.673 2313.87 332.58 2313.73 332.54 2313.56C332.513 2313.37 332.56 2313.16 332.68 2312.92L339.02 2300.74V2301.48H331.98C331.713 2301.48 331.507 2301.41 331.36 2301.28C331.213 2301.13 331.14 2300.94 331.14 2300.7C331.14 2300.45 331.213 2300.25 331.36 2300.12C331.507 2299.97 331.713 2299.9 331.98 2299.9H339.88C340.147 2299.9 340.36 2299.97 340.52 2300.12C340.693 2300.25 340.78 2300.45 340.78 2300.7C340.78 2300.91 340.753 2301.1 340.7 2301.26C340.647 2301.41 340.567 2301.58 340.46 2301.78L334.42 2313.52C334.313 2313.73 334.173 2313.89 334 2314C333.84 2314.09 333.633 2314.14 333.38 2314.14ZM347.992 2314.18C346.366 2314.18 345.126 2313.56 344.272 2312.32C343.432 2311.07 343.012 2309.27 343.012 2306.94C343.012 2305.35 343.199 2304.03 343.572 2302.96C343.959 2301.89 344.519 2301.09 345.252 2300.54C345.999 2299.99 346.912 2299.72 347.992 2299.72C349.632 2299.72 350.872 2300.33 351.712 2301.56C352.552 2302.77 352.972 2304.56 352.972 2306.92C352.972 2308.48 352.779 2309.8 352.392 2310.88C352.019 2311.96 351.466 2312.78 350.732 2313.34C349.999 2313.9 349.086 2314.18 347.992 2314.18ZM347.992 2312.6C349.059 2312.6 349.852 2312.14 350.372 2311.22C350.892 2310.3 351.152 2308.87 351.152 2306.92C351.152 2304.97 350.892 2303.55 350.372 2302.66C349.866 2301.75 349.072 2301.3 347.992 2301.3C346.926 2301.3 346.132 2301.75 345.612 2302.66C345.092 2303.55 344.832 2304.97 344.832 2306.92C344.832 2308.87 345.092 2310.3 345.612 2311.22C346.132 2312.14 346.926 2312.6 347.992 2312.6ZM360.244 2314.18C359.498 2314.18 358.744 2314.07 357.984 2313.86C357.238 2313.63 356.558 2313.29 355.944 2312.84C355.771 2312.72 355.651 2312.58 355.584 2312.42C355.531 2312.25 355.524 2312.08 355.564 2311.92C355.604 2311.76 355.684 2311.63 355.804 2311.52C355.924 2311.4 356.064 2311.33 356.224 2311.32C356.398 2311.31 356.578 2311.36 356.764 2311.48C357.298 2311.85 357.851 2312.13 358.424 2312.32C358.998 2312.49 359.598 2312.58 360.224 2312.58C360.851 2312.58 361.391 2312.46 361.844 2312.22C362.298 2311.98 362.644 2311.65 362.884 2311.22C363.138 2310.79 363.264 2310.29 363.264 2309.72C363.264 2308.84 363.004 2308.12 362.484 2307.56C361.964 2307 361.258 2306.72 360.364 2306.72C359.818 2306.72 359.311 2306.82 358.844 2307.02C358.391 2307.21 357.964 2307.53 357.564 2307.98C357.471 2308.09 357.351 2308.18 357.204 2308.26C357.071 2308.34 356.918 2308.38 356.744 2308.38C356.491 2308.38 356.298 2308.31 356.164 2308.18C356.031 2308.03 355.964 2307.84 355.964 2307.6V2300.74C355.964 2300.47 356.038 2300.27 356.184 2300.12C356.331 2299.97 356.538 2299.9 356.804 2299.9H363.544C363.811 2299.9 364.018 2299.97 364.164 2300.1C364.311 2300.23 364.384 2300.43 364.384 2300.68C364.384 2300.93 364.311 2301.13 364.164 2301.28C364.018 2301.41 363.811 2301.48 363.544 2301.48H357.784V2306.82H357.264C357.624 2306.29 358.104 2305.87 358.704 2305.58C359.318 2305.29 359.991 2305.14 360.724 2305.14C361.618 2305.14 362.384 2305.33 363.024 2305.72C363.678 2306.09 364.184 2306.62 364.544 2307.3C364.904 2307.97 365.084 2308.75 365.084 2309.64C365.084 2310.52 364.884 2311.31 364.484 2312C364.098 2312.68 363.544 2313.21 362.824 2313.6C362.104 2313.99 361.244 2314.18 360.244 2314.18Z" fill="#0A0A0A"/>
</g>
</g>
</g>
<g id="Right">
<g id="Frame_4">
<mask id="path-26-inside-3_157_2" fill="white">
<path d="M436 26H596V1983H448C441.373 1983 436 1977.63 436 1971V26Z"/>
</mask>
<path d="M436 26H596H436M596 1985H448C440.268 1985 434 1978.73 434 1971H438C438 1976.52 442.477 1981 448 1981H596V1985ZM448 1985C440.268 1985 434 1978.73 434 1971V26H438V1971C438 1976.52 442.477 1981 448 1981V1985ZM448 1981M596 26V1983V26" fill="#737373" mask="url(#path-26-inside-3_157_2)"/>
</g>
<g id="Right Inner" clip-path="url(#clip2_157_2)">
<g id="location-id-stairs63-stairs7">
<line id="Line 5" x1="498" y1="1981" x2="498" y2="2101" stroke="#737373" stroke-width="2"/>
<line id="Line 2" x1="513" y1="1981" x2="513" y2="2101" stroke="#737373" stroke-width="2"/>
<line id="Line 4" x1="528" y1="1981" x2="528" y2="2101" stroke="#737373" stroke-width="2"/>
<line id="Line 3" x1="543" y1="1981" x2="543" y2="2101" stroke="#737373" stroke-width="2"/>
<line id="Line 1" x1="558" y1="1981" x2="558" y2="2101" stroke="#737373" stroke-width="2"/>
<line id="Line 8" x1="573" y1="1981" x2="573" y2="2101" stroke="#737373" stroke-width="2"/>
<line id="Line 6" x1="497" y1="2039" x2="572" y2="2039" stroke="#737373" stroke-width="4"/>
</g>
</g>
<g id="Frame_5">
<mask id="path-35-inside-4_157_2" fill="white">
<path d="M436 2111C436 2104.37 441.373 2099 448 2099H596V2219H436V2111Z"/>
</mask>
<path d="M434 2111C434 2103.27 440.268 2097 448 2097H596V2101H448C442.477 2101 438 2105.48 438 2111H434ZM438 2111M596 2219H436H596M434 2219V2111C434 2103.27 440.268 2097 448 2097V2101C442.477 2101 438 2105.48 438 2111V2219H434ZM438 2219M596 2099V2219V2099" fill="#737373" mask="url(#path-35-inside-4_157_2)"/>
</g>
</g>
<path id="Line 13" d="M259 697V726" stroke="#737373" stroke-width="2"/>
<path id="Line 14" d="M259 1443V1472" stroke="#737373" stroke-width="2"/>
</g>
<defs>
<clipPath id="clip0_157_2">
<rect width="180" height="2210" fill="white" transform="translate(80 8)"/>
</clipPath>
<clipPath id="clip1_157_2">
<rect width="180" height="2399" fill="white" transform="translate(258 8)"/>
</clipPath>
<clipPath id="clip2_157_2">
<rect width="160" height="120" fill="white" transform="translate(436 1981)"/>
</clipPath>
</defs>
</svg>
