<svg width="676" height="2415" viewBox="0 0 676 2415" fill="none" xmlns="http://www.w3.org/2000/svg">
<g id="floor-7">
<rect width="676" height="2415" fill="white"/>
<g id="Left">
<rect width="252" height="2210" transform="translate(8 8)" fill="white"/>
<g id="Left Inner" clip-path="url(#clip0_157_2)">
<g id="Frame">
<mask id="path-1-inside-1_157_2" fill="white">
<path d="M80 26H260V706H80V26Z"/>
</mask>
<path d="M260 26H258V706H260H262V26H260Z" fill="#737373" mask="url(#path-1-inside-1_157_2)"/>
</g>
<g id="location-id-701">
<rect x="81" y="705" width="178" height="238" rx="11" stroke="#737373" stroke-width="2"/>
<g id="Frame 1">
<rect x="144" y="810" width="52" height="28" rx="4" fill="#A9B0E9"/>
<path id="number" d="M155.38 831.14C155.167 831.14 154.98 831.087 154.82 830.98C154.673 830.873 154.58 830.733 154.54 830.56C154.513 830.373 154.56 830.16 154.68 829.92L161.02 817.74V818.48H153.98C153.713 818.48 153.507 818.413 153.36 818.28C153.213 818.133 153.14 817.94 153.14 817.7C153.14 817.447 153.213 817.253 153.36 817.12C153.507 816.973 153.713 816.9 153.98 816.9H161.88C162.147 816.9 162.36 816.973 162.52 817.12C162.693 817.253 162.78 817.447 162.78 817.7C162.78 817.913 162.753 818.1 162.7 818.26C162.647 818.407 162.567 818.58 162.46 818.78L156.42 830.52C156.313 830.733 156.173 830.893 156 831C155.84 831.093 155.633 831.14 155.38 831.14ZM169.992 831.18C168.366 831.18 167.126 830.56 166.272 829.32C165.432 828.067 165.012 826.273 165.012 823.94C165.012 822.353 165.199 821.027 165.572 819.96C165.959 818.893 166.519 818.087 167.252 817.54C167.999 816.993 168.912 816.72 169.992 816.72C171.632 816.72 172.872 817.333 173.712 818.56C174.552 819.773 174.972 821.56 174.972 823.92C174.972 825.48 174.779 826.8 174.392 827.88C174.019 828.96 173.466 829.78 172.732 830.34C171.999 830.9 171.086 831.18 169.992 831.18ZM169.992 829.6C171.059 829.6 171.852 829.14 172.372 828.22C172.892 827.3 173.152 825.867 173.152 823.92C173.152 821.973 172.892 820.553 172.372 819.66C171.866 818.753 171.072 818.3 169.992 818.3C168.926 818.3 168.132 818.753 167.612 819.66C167.092 820.553 166.832 821.973 166.832 823.92C166.832 825.867 167.092 827.3 167.612 828.22C168.132 829.14 168.926 829.6 169.992 829.6ZM179.084 831C178.831 831 178.631 830.927 178.484 830.78C178.338 830.633 178.264 830.44 178.264 830.2C178.264 829.947 178.338 829.753 178.484 829.62C178.631 829.487 178.831 829.42 179.084 829.42H181.604V818.44H182.564L179.644 820.32C179.458 820.44 179.278 820.493 179.104 820.48C178.944 820.453 178.804 820.387 178.684 820.28C178.564 820.16 178.484 820.02 178.444 819.86C178.404 819.7 178.411 819.54 178.464 819.38C178.531 819.207 178.664 819.067 178.864 818.96L181.624 817.16C181.824 817.04 182.011 816.947 182.184 816.88C182.371 816.8 182.551 816.76 182.724 816.76C182.924 816.76 183.098 816.82 183.244 816.94C183.391 817.06 183.464 817.253 183.464 817.52V829.42H185.784C186.051 829.42 186.251 829.487 186.384 829.62C186.531 829.753 186.604 829.947 186.604 830.2C186.604 830.453 186.531 830.653 186.384 830.8C186.251 830.933 186.051 831 185.784 831H179.084Z" fill="#0A0A0A"/>
</g>
</g>
<g id="location-id-702">
<rect x="81" y="943" width="178" height="198" rx="11" stroke="#737373" stroke-width="2"/>
<g id="Frame 1_2">
<rect x="93.5" y="1028" width="153" height="28" rx="4" fill="#A9B0E9"/>
<path id="number_2" d="M109.22 1049.18C107.887 1049.18 106.733 1048.89 105.76 1048.3C104.787 1047.7 104.027 1046.86 103.48 1045.78C102.947 1044.69 102.68 1043.41 102.68 1041.94C102.68 1040.83 102.833 1039.84 103.14 1038.96C103.447 1038.07 103.88 1037.31 104.44 1036.68C105.013 1036.04 105.7 1035.55 106.5 1035.22C107.313 1034.89 108.22 1034.72 109.22 1034.72C110.553 1034.72 111.707 1035.01 112.68 1035.6C113.653 1036.19 114.407 1037.02 114.94 1038.1C115.473 1039.18 115.74 1040.45 115.74 1041.92C115.74 1043.03 115.587 1044.03 115.28 1044.92C114.973 1045.81 114.533 1046.58 113.96 1047.22C113.4 1047.86 112.72 1048.35 111.92 1048.68C111.12 1049.01 110.22 1049.18 109.22 1049.18ZM109.22 1047.54C110.18 1047.54 111 1047.32 111.68 1046.88C112.36 1046.44 112.88 1045.8 113.24 1044.96C113.613 1044.12 113.8 1043.11 113.8 1041.94C113.8 1040.17 113.4 1038.79 112.6 1037.82C111.813 1036.85 110.687 1036.36 109.22 1036.36C108.26 1036.36 107.433 1036.58 106.74 1037.02C106.06 1037.45 105.54 1038.08 105.18 1038.92C104.82 1039.75 104.64 1040.75 104.64 1041.94C104.64 1043.7 105.04 1045.07 105.84 1046.06C106.64 1047.05 107.767 1047.54 109.22 1047.54ZM122.71 1049.18C121.723 1049.18 120.87 1048.97 120.15 1048.56C119.43 1048.13 118.876 1047.51 118.49 1046.68C118.116 1045.84 117.93 1044.82 117.93 1043.62V1042.12C117.93 1040.83 118.103 1039.75 118.45 1038.88C118.81 1038 119.343 1037.29 120.05 1036.76C120.77 1036.23 121.663 1035.81 122.73 1035.52L125.57 1034.74C125.836 1034.67 126.056 1034.69 126.23 1034.78C126.416 1034.87 126.543 1035.04 126.61 1035.28C126.663 1035.53 126.623 1035.75 126.49 1035.92C126.37 1036.09 126.17 1036.21 125.89 1036.28L122.85 1037.1C122.143 1037.29 121.55 1037.57 121.07 1037.96C120.603 1038.35 120.25 1038.82 120.01 1039.38C119.77 1039.94 119.65 1040.58 119.65 1041.3V1042.16H119.37C119.516 1041.57 119.763 1041.07 120.11 1040.64C120.456 1040.2 120.883 1039.86 121.39 1039.62C121.91 1039.38 122.49 1039.26 123.13 1039.26C123.97 1039.26 124.703 1039.46 125.33 1039.86C125.97 1040.26 126.47 1040.83 126.83 1041.56C127.19 1042.29 127.37 1043.16 127.37 1044.16C127.37 1045.19 127.176 1046.07 126.79 1046.82C126.403 1047.57 125.863 1048.15 125.17 1048.56C124.476 1048.97 123.656 1049.18 122.71 1049.18ZM122.63 1047.74C123.243 1047.74 123.763 1047.61 124.19 1047.34C124.616 1047.06 124.943 1046.66 125.17 1046.14C125.41 1045.62 125.53 1044.98 125.53 1044.22C125.53 1043.1 125.27 1042.23 124.75 1041.62C124.243 1041.01 123.543 1040.7 122.65 1040.7C122.05 1040.7 121.53 1040.84 121.09 1041.12C120.663 1041.39 120.336 1041.77 120.11 1042.28C119.883 1042.77 119.77 1043.37 119.77 1044.08C119.77 1045.28 120.016 1046.19 120.51 1046.82C121.016 1047.43 121.723 1047.74 122.63 1047.74ZM134.135 1049.18C133.149 1049.18 132.295 1048.97 131.575 1048.56C130.855 1048.13 130.302 1047.54 129.915 1046.78C129.529 1046.01 129.335 1045.1 129.335 1044.06C129.335 1043.29 129.442 1042.59 129.655 1041.98C129.882 1041.37 130.202 1040.85 130.615 1040.42C131.029 1039.98 131.529 1039.65 132.115 1039.42C132.715 1039.19 133.389 1039.08 134.135 1039.08C134.602 1039.08 135.095 1039.15 135.615 1039.3C136.135 1039.45 136.615 1039.69 137.055 1040.02C137.202 1040.13 137.295 1040.25 137.335 1040.4C137.375 1040.53 137.375 1040.67 137.335 1040.82C137.309 1040.97 137.242 1041.09 137.135 1041.2C137.042 1041.29 136.915 1041.35 136.755 1041.36C136.609 1041.37 136.449 1041.33 136.275 1041.22C135.955 1040.98 135.615 1040.81 135.255 1040.7C134.909 1040.59 134.575 1040.54 134.255 1040.54C133.762 1040.54 133.322 1040.62 132.935 1040.78C132.562 1040.94 132.242 1041.17 131.975 1041.48C131.722 1041.77 131.529 1042.14 131.395 1042.58C131.262 1043.01 131.195 1043.51 131.195 1044.08C131.195 1045.21 131.462 1046.11 131.995 1046.76C132.529 1047.4 133.282 1047.72 134.255 1047.72C134.575 1047.72 134.909 1047.67 135.255 1047.58C135.602 1047.47 135.942 1047.3 136.275 1047.06C136.449 1046.95 136.609 1046.91 136.755 1046.94C136.902 1046.95 137.022 1047.01 137.115 1047.12C137.222 1047.21 137.289 1047.33 137.315 1047.48C137.342 1047.61 137.329 1047.75 137.275 1047.9C137.235 1048.05 137.142 1048.17 136.995 1048.26C136.569 1048.58 136.102 1048.81 135.595 1048.96C135.089 1049.11 134.602 1049.18 134.135 1049.18ZM143.927 1049.18C142.874 1049.18 141.967 1048.98 141.207 1048.58C140.461 1048.17 139.881 1047.59 139.467 1046.84C139.054 1046.08 138.847 1045.19 138.847 1044.16C138.847 1043.15 139.047 1042.26 139.447 1041.5C139.861 1040.74 140.421 1040.15 141.127 1039.72C141.847 1039.29 142.667 1039.08 143.587 1039.08C144.241 1039.08 144.827 1039.19 145.347 1039.42C145.881 1039.63 146.334 1039.95 146.707 1040.36C147.081 1040.77 147.361 1041.28 147.547 1041.88C147.747 1042.47 147.847 1043.13 147.847 1043.88C147.847 1044.09 147.781 1044.26 147.647 1044.38C147.527 1044.49 147.347 1044.54 147.107 1044.54H140.267V1043.38H146.647L146.307 1043.66C146.307 1042.97 146.201 1042.38 145.987 1041.9C145.787 1041.41 145.487 1041.03 145.087 1040.78C144.701 1040.53 144.214 1040.4 143.627 1040.4C142.987 1040.4 142.441 1040.55 141.987 1040.86C141.534 1041.15 141.187 1041.57 140.947 1042.12C140.707 1042.65 140.587 1043.27 140.587 1043.98V1044.1C140.587 1045.3 140.874 1046.21 141.447 1046.82C142.021 1047.43 142.847 1047.74 143.927 1047.74C144.354 1047.74 144.787 1047.69 145.227 1047.58C145.681 1047.47 146.114 1047.28 146.527 1047C146.727 1046.88 146.907 1046.83 147.067 1046.84C147.241 1046.84 147.381 1046.89 147.487 1047C147.594 1047.09 147.661 1047.21 147.687 1047.36C147.714 1047.49 147.694 1047.64 147.627 1047.8C147.561 1047.96 147.434 1048.1 147.247 1048.22C146.807 1048.53 146.281 1048.77 145.667 1048.94C145.067 1049.1 144.487 1049.18 143.927 1049.18ZM151.226 1052.74C150.946 1052.74 150.726 1052.66 150.566 1052.5C150.406 1052.34 150.326 1052.11 150.326 1051.82V1040.04C150.326 1039.73 150.406 1039.51 150.566 1039.36C150.726 1039.2 150.946 1039.12 151.226 1039.12C151.519 1039.12 151.739 1039.2 151.886 1039.36C152.046 1039.51 152.126 1039.73 152.126 1040.04V1041.86L151.906 1041.5C152.119 1040.77 152.539 1040.18 153.166 1039.74C153.792 1039.3 154.546 1039.08 155.426 1039.08C156.292 1039.08 157.046 1039.29 157.686 1039.7C158.326 1040.1 158.826 1040.68 159.186 1041.44C159.546 1042.19 159.726 1043.08 159.726 1044.12C159.726 1045.15 159.546 1046.05 159.186 1046.82C158.839 1047.58 158.339 1048.17 157.686 1048.58C157.046 1048.98 156.292 1049.18 155.426 1049.18C154.559 1049.18 153.812 1048.96 153.186 1048.52C152.559 1048.08 152.139 1047.5 151.926 1046.78H152.146V1051.82C152.146 1052.11 152.066 1052.34 151.906 1052.5C151.746 1052.66 151.519 1052.74 151.226 1052.74ZM155.006 1047.74C155.579 1047.74 156.079 1047.6 156.506 1047.32C156.946 1047.04 157.286 1046.63 157.526 1046.1C157.766 1045.57 157.886 1044.91 157.886 1044.12C157.886 1042.95 157.626 1042.05 157.106 1041.44C156.586 1040.83 155.886 1040.52 155.006 1040.52C154.419 1040.52 153.906 1040.66 153.466 1040.94C153.039 1041.21 152.706 1041.61 152.466 1042.14C152.239 1042.67 152.126 1043.33 152.126 1044.12C152.126 1045.29 152.386 1046.19 152.906 1046.82C153.426 1047.43 154.126 1047.74 155.006 1047.74ZM163.219 1049C162.912 1049 162.679 1048.92 162.519 1048.76C162.359 1048.6 162.279 1048.37 162.279 1048.06V1040.2C162.279 1039.89 162.359 1039.66 162.519 1039.5C162.679 1039.34 162.912 1039.26 163.219 1039.26H167.139C167.925 1039.26 168.565 1039.36 169.059 1039.56C169.565 1039.76 169.939 1040.05 170.179 1040.42C170.419 1040.79 170.539 1041.26 170.539 1041.82C170.539 1042.43 170.325 1042.95 169.899 1043.38C169.472 1043.81 168.912 1044.06 168.219 1044.14V1043.88C169.045 1043.91 169.692 1044.15 170.159 1044.6C170.625 1045.04 170.859 1045.61 170.859 1046.3C170.859 1047.13 170.552 1047.79 169.939 1048.28C169.325 1048.76 168.445 1049 167.299 1049H163.219ZM163.999 1047.8H167.199C167.839 1047.8 168.325 1047.67 168.659 1047.4C169.005 1047.12 169.179 1046.73 169.179 1046.22C169.179 1045.7 169.005 1045.31 168.659 1045.04C168.325 1044.77 167.839 1044.64 167.199 1044.64H163.999V1047.8ZM163.999 1043.44H167.039C167.612 1043.44 168.052 1043.31 168.359 1043.04C168.679 1042.77 168.839 1042.41 168.839 1041.94C168.839 1041.46 168.679 1041.09 168.359 1040.84C168.052 1040.59 167.612 1040.46 167.039 1040.46H163.999V1043.44ZM176.414 1049.18C175.747 1049.18 175.141 1049.05 174.594 1048.78C174.061 1048.51 173.641 1048.15 173.334 1047.7C173.041 1047.25 172.894 1046.74 172.894 1046.18C172.894 1045.46 173.074 1044.89 173.434 1044.48C173.794 1044.07 174.401 1043.77 175.254 1043.6C176.107 1043.41 177.254 1043.32 178.694 1043.32H179.634V1044.48H178.734C177.707 1044.48 176.894 1044.53 176.294 1044.62C175.707 1044.71 175.294 1044.88 175.054 1045.12C174.814 1045.35 174.694 1045.67 174.694 1046.08C174.694 1046.6 174.874 1047.03 175.234 1047.36C175.607 1047.69 176.114 1047.86 176.754 1047.86C177.261 1047.86 177.707 1047.74 178.094 1047.5C178.481 1047.25 178.787 1046.91 179.014 1046.5C179.241 1046.07 179.354 1045.59 179.354 1045.04V1042.74C179.354 1041.95 179.194 1041.39 178.874 1041.04C178.554 1040.68 178.014 1040.5 177.254 1040.5C176.814 1040.5 176.361 1040.56 175.894 1040.68C175.427 1040.8 174.941 1040.99 174.434 1041.24C174.234 1041.33 174.061 1041.37 173.914 1041.34C173.767 1041.3 173.647 1041.22 173.554 1041.1C173.474 1040.97 173.427 1040.83 173.414 1040.68C173.414 1040.52 173.447 1040.37 173.514 1040.22C173.594 1040.07 173.727 1039.97 173.914 1039.9C174.501 1039.61 175.081 1039.4 175.654 1039.28C176.241 1039.15 176.787 1039.08 177.294 1039.08C178.161 1039.08 178.874 1039.22 179.434 1039.5C179.994 1039.77 180.414 1040.19 180.694 1040.76C180.974 1041.32 181.114 1042.04 181.114 1042.92V1048.2C181.114 1048.51 181.041 1048.74 180.894 1048.9C180.747 1049.06 180.534 1049.14 180.254 1049.14C179.987 1049.14 179.774 1049.06 179.614 1048.9C179.467 1048.74 179.394 1048.51 179.394 1048.2V1046.78H179.574C179.467 1047.27 179.267 1047.7 178.974 1048.06C178.681 1048.42 178.314 1048.7 177.874 1048.9C177.447 1049.09 176.961 1049.18 176.414 1049.18ZM187.153 1049.14C186.859 1049.14 186.633 1049.06 186.473 1048.9C186.313 1048.74 186.233 1048.51 186.233 1048.2V1040.72H183.393C182.859 1040.72 182.593 1040.47 182.593 1039.98C182.593 1039.75 182.666 1039.58 182.813 1039.46C182.959 1039.33 183.153 1039.26 183.393 1039.26H190.873C191.419 1039.26 191.693 1039.5 191.693 1039.98C191.693 1040.22 191.619 1040.41 191.473 1040.54C191.339 1040.66 191.139 1040.72 190.873 1040.72H188.053V1048.2C188.053 1048.51 187.973 1048.74 187.813 1048.9C187.666 1049.06 187.446 1049.14 187.153 1049.14ZM197.278 1049.18C196.318 1049.18 195.485 1048.97 194.778 1048.56C194.071 1048.15 193.525 1047.56 193.138 1046.8C192.751 1046.04 192.558 1045.15 192.558 1044.12C192.558 1043.35 192.665 1042.65 192.878 1042.04C193.105 1041.41 193.425 1040.88 193.838 1040.44C194.251 1040 194.745 1039.67 195.318 1039.44C195.905 1039.2 196.558 1039.08 197.278 1039.08C198.238 1039.08 199.071 1039.29 199.778 1039.7C200.485 1040.11 201.031 1040.7 201.418 1041.46C201.805 1042.21 201.998 1043.09 201.998 1044.12C201.998 1044.89 201.885 1045.59 201.658 1046.22C201.445 1046.85 201.131 1047.38 200.718 1047.82C200.305 1048.26 199.805 1048.6 199.218 1048.84C198.645 1049.07 197.998 1049.18 197.278 1049.18ZM197.278 1047.74C197.865 1047.74 198.371 1047.6 198.798 1047.32C199.238 1047.04 199.571 1046.63 199.798 1046.1C200.038 1045.57 200.158 1044.91 200.158 1044.12C200.158 1042.95 199.898 1042.05 199.378 1041.44C198.858 1040.83 198.158 1040.52 197.278 1040.52C196.705 1040.52 196.198 1040.66 195.758 1040.94C195.331 1041.21 194.998 1041.61 194.758 1042.14C194.518 1042.67 194.398 1043.33 194.398 1044.12C194.398 1045.29 194.658 1046.19 195.178 1046.82C195.711 1047.43 196.411 1047.74 197.278 1047.74ZM205.464 1052.74C205.184 1052.74 204.964 1052.66 204.804 1052.5C204.644 1052.34 204.564 1052.11 204.564 1051.82V1040.04C204.564 1039.73 204.644 1039.51 204.804 1039.36C204.964 1039.2 205.184 1039.12 205.464 1039.12C205.757 1039.12 205.977 1039.2 206.124 1039.36C206.284 1039.51 206.364 1039.73 206.364 1040.04V1041.86L206.144 1041.5C206.357 1040.77 206.777 1040.18 207.404 1039.74C208.031 1039.3 208.784 1039.08 209.664 1039.08C210.531 1039.08 211.284 1039.29 211.924 1039.7C212.564 1040.1 213.064 1040.68 213.424 1041.44C213.784 1042.19 213.964 1043.08 213.964 1044.12C213.964 1045.15 213.784 1046.05 213.424 1046.82C213.077 1047.58 212.577 1048.17 211.924 1048.58C211.284 1048.98 210.531 1049.18 209.664 1049.18C208.797 1049.18 208.051 1048.96 207.424 1048.52C206.797 1048.08 206.377 1047.5 206.164 1046.78H206.384V1051.82C206.384 1052.11 206.304 1052.34 206.144 1052.5C205.984 1052.66 205.757 1052.74 205.464 1052.74ZM209.244 1047.74C209.817 1047.74 210.317 1047.6 210.744 1047.32C211.184 1047.04 211.524 1046.63 211.764 1046.1C212.004 1045.57 212.124 1044.91 212.124 1044.12C212.124 1042.95 211.864 1042.05 211.344 1041.44C210.824 1040.83 210.124 1040.52 209.244 1040.52C208.657 1040.52 208.144 1040.66 207.704 1040.94C207.277 1041.21 206.944 1041.61 206.704 1042.14C206.477 1042.67 206.364 1043.33 206.364 1044.12C206.364 1045.29 206.624 1046.19 207.144 1046.82C207.664 1047.43 208.364 1047.74 209.244 1047.74ZM217.357 1049.14C217.184 1049.14 217.03 1049.11 216.897 1049.04C216.777 1048.97 216.684 1048.87 216.617 1048.72C216.55 1048.57 216.517 1048.39 216.517 1048.16V1040C216.517 1039.72 216.59 1039.51 216.737 1039.36C216.884 1039.2 217.09 1039.12 217.357 1039.12C217.61 1039.12 217.81 1039.2 217.957 1039.36C218.104 1039.51 218.177 1039.72 218.177 1040V1047.22H217.657L223.297 1039.7C223.404 1039.55 223.537 1039.42 223.697 1039.3C223.857 1039.18 224.07 1039.12 224.337 1039.12C224.524 1039.12 224.677 1039.15 224.797 1039.22C224.917 1039.29 225.004 1039.39 225.057 1039.54C225.124 1039.67 225.157 1039.85 225.157 1040.08V1048.26C225.157 1048.53 225.084 1048.74 224.937 1048.9C224.804 1049.06 224.61 1049.14 224.357 1049.14C224.077 1049.14 223.864 1049.06 223.717 1048.9C223.584 1048.74 223.517 1048.53 223.517 1048.26V1041.02H224.037L218.397 1048.56C218.29 1048.71 218.157 1048.84 217.997 1048.96C217.837 1049.08 217.624 1049.14 217.357 1049.14ZM235.175 1049.14C234.908 1049.14 234.702 1049.07 234.555 1048.92C234.408 1048.76 234.335 1048.54 234.335 1048.26V1045.36H232.995C232.502 1045.36 232.075 1045.49 231.715 1045.74C231.355 1045.99 231.068 1046.31 230.855 1046.7L229.755 1048.62C229.622 1048.85 229.462 1048.99 229.275 1049.06C229.102 1049.14 228.922 1049.15 228.735 1049.1C228.562 1049.06 228.408 1048.97 228.275 1048.84C228.142 1048.71 228.055 1048.55 228.015 1048.36C227.988 1048.17 228.042 1047.98 228.175 1047.78L229.035 1046.28C229.262 1045.91 229.562 1045.59 229.935 1045.32C230.308 1045.05 230.695 1044.92 231.095 1044.92H231.375V1045.1C230.282 1045.1 229.428 1044.85 228.815 1044.34C228.202 1043.83 227.895 1043.13 227.895 1042.22C227.895 1041.62 228.028 1041.1 228.295 1040.66C228.575 1040.21 228.982 1039.86 229.515 1039.62C230.048 1039.38 230.715 1039.26 231.515 1039.26H235.095C235.388 1039.26 235.615 1039.34 235.775 1039.5C235.948 1039.66 236.035 1039.89 236.035 1040.2V1048.26C236.035 1048.54 235.955 1048.76 235.795 1048.92C235.648 1049.07 235.442 1049.14 235.175 1049.14ZM231.875 1044.1H234.335V1040.52H231.875C231.115 1040.52 230.555 1040.68 230.195 1041C229.835 1041.31 229.655 1041.74 229.655 1042.3C229.655 1042.86 229.835 1043.3 230.195 1043.62C230.555 1043.94 231.115 1044.1 231.875 1044.1Z" fill="#0A0A0A"/>
</g>
</g>
<g id="location-id-703">
<rect x="81" y="1141" width="178" height="318" rx="11" stroke="#737373" stroke-width="2"/>
<g id="Frame 1_3">
<rect x="144" y="1286" width="52" height="28" rx="4" fill="#A9B0E9"/>
<path id="number_3" d="M155.38 1307.14C155.167 1307.14 154.98 1307.09 154.82 1306.98C154.673 1306.87 154.58 1306.73 154.54 1306.56C154.513 1306.37 154.56 1306.16 154.68 1305.92L161.02 1293.74V1294.48H153.98C153.713 1294.48 153.507 1294.41 153.36 1294.28C153.213 1294.13 153.14 1293.94 153.14 1293.7C153.14 1293.45 153.213 1293.25 153.36 1293.12C153.507 1292.97 153.713 1292.9 153.98 1292.9H161.88C162.147 1292.9 162.36 1292.97 162.52 1293.12C162.693 1293.25 162.78 1293.45 162.78 1293.7C162.78 1293.91 162.753 1294.1 162.7 1294.26C162.647 1294.41 162.567 1294.58 162.46 1294.78L156.42 1306.52C156.313 1306.73 156.173 1306.89 156 1307C155.84 1307.09 155.633 1307.14 155.38 1307.14ZM169.992 1307.18C168.366 1307.18 167.126 1306.56 166.272 1305.32C165.432 1304.07 165.012 1302.27 165.012 1299.94C165.012 1298.35 165.199 1297.03 165.572 1295.96C165.959 1294.89 166.519 1294.09 167.252 1293.54C167.999 1292.99 168.912 1292.72 169.992 1292.72C171.632 1292.72 172.872 1293.33 173.712 1294.56C174.552 1295.77 174.972 1297.56 174.972 1299.92C174.972 1301.48 174.779 1302.8 174.392 1303.88C174.019 1304.96 173.466 1305.78 172.732 1306.34C171.999 1306.9 171.086 1307.18 169.992 1307.18ZM169.992 1305.6C171.059 1305.6 171.852 1305.14 172.372 1304.22C172.892 1303.3 173.152 1301.87 173.152 1299.92C173.152 1297.97 172.892 1296.55 172.372 1295.66C171.866 1294.75 171.072 1294.3 169.992 1294.3C168.926 1294.3 168.132 1294.75 167.612 1295.66C167.092 1296.55 166.832 1297.97 166.832 1299.92C166.832 1301.87 167.092 1303.3 167.612 1304.22C168.132 1305.14 168.926 1305.6 169.992 1305.6ZM181.804 1307.18C181.031 1307.18 180.258 1307.07 179.484 1306.86C178.711 1306.65 178.038 1306.33 177.464 1305.9C177.278 1305.77 177.151 1305.61 177.084 1305.44C177.018 1305.27 176.998 1305.11 177.024 1304.96C177.064 1304.8 177.144 1304.67 177.264 1304.56C177.384 1304.45 177.531 1304.39 177.704 1304.38C177.878 1304.35 178.064 1304.4 178.264 1304.52C178.838 1304.89 179.404 1305.17 179.964 1305.34C180.538 1305.5 181.131 1305.58 181.744 1305.58C182.398 1305.58 182.951 1305.49 183.404 1305.3C183.858 1305.1 184.198 1304.81 184.424 1304.44C184.664 1304.05 184.784 1303.59 184.784 1303.06C184.784 1302.26 184.524 1301.66 184.004 1301.26C183.484 1300.85 182.724 1300.64 181.724 1300.64H180.324C180.044 1300.64 179.831 1300.57 179.684 1300.44C179.538 1300.29 179.464 1300.1 179.464 1299.86C179.464 1299.61 179.538 1299.41 179.684 1299.28C179.831 1299.15 180.044 1299.08 180.324 1299.08H181.564C182.151 1299.08 182.651 1298.98 183.064 1298.78C183.478 1298.57 183.798 1298.27 184.024 1297.9C184.264 1297.53 184.384 1297.07 184.384 1296.54C184.384 1295.82 184.151 1295.27 183.684 1294.9C183.218 1294.51 182.544 1294.32 181.664 1294.32C181.091 1294.32 180.551 1294.41 180.044 1294.58C179.538 1294.74 179.024 1295.01 178.504 1295.4C178.331 1295.52 178.158 1295.58 177.984 1295.58C177.811 1295.57 177.664 1295.51 177.544 1295.4C177.438 1295.29 177.364 1295.17 177.324 1295.02C177.284 1294.86 177.291 1294.69 177.344 1294.52C177.398 1294.35 177.518 1294.19 177.704 1294.06C178.251 1293.63 178.878 1293.31 179.584 1293.08C180.304 1292.84 181.044 1292.72 181.804 1292.72C182.724 1292.72 183.511 1292.87 184.164 1293.16C184.831 1293.45 185.338 1293.87 185.684 1294.42C186.031 1294.95 186.204 1295.6 186.204 1296.36C186.204 1296.93 186.098 1297.46 185.884 1297.94C185.671 1298.41 185.364 1298.81 184.964 1299.14C184.578 1299.46 184.104 1299.69 183.544 1299.82V1299.6C184.518 1299.77 185.271 1300.18 185.804 1300.82C186.351 1301.45 186.624 1302.23 186.624 1303.18C186.624 1303.99 186.424 1304.71 186.024 1305.32C185.638 1305.92 185.084 1306.38 184.364 1306.7C183.644 1307.02 182.791 1307.18 181.804 1307.18Z" fill="#0A0A0A"/>
</g>
</g>
<g id="Frame_2">
<mask id="path-12-inside-2_157_2" fill="white">
<path d="M80 1458H260V2218H80V1458Z"/>
</mask>
<path d="M260 1458H258V2218H260H262V1458H260Z" fill="#737373" mask="url(#path-12-inside-2_157_2)"/>
</g>
</g>
</g>
<g id="Center" clip-path="url(#clip1_157_2)">
<g id="location-id-704">
<rect x="259" y="9" width="178" height="518" rx="11" stroke="#737373" stroke-width="2"/>
<g id="Frame 1_4">
<rect x="322" y="254" width="52" height="28" rx="4" fill="#A9B0E9"/>
<path id="number_4" d="M333.38 275.14C333.167 275.14 332.98 275.087 332.82 274.98C332.673 274.873 332.58 274.733 332.54 274.56C332.513 274.373 332.56 274.16 332.68 273.92L339.02 261.74V262.48H331.98C331.713 262.48 331.507 262.413 331.36 262.28C331.213 262.133 331.14 261.94 331.14 261.7C331.14 261.447 331.213 261.253 331.36 261.12C331.507 260.973 331.713 260.9 331.98 260.9H339.88C340.147 260.9 340.36 260.973 340.52 261.12C340.693 261.253 340.78 261.447 340.78 261.7C340.78 261.913 340.753 262.1 340.7 262.26C340.647 262.407 340.567 262.58 340.46 262.78L334.42 274.52C334.313 274.733 334.173 274.893 334 275C333.84 275.093 333.633 275.14 333.38 275.14ZM347.992 275.18C346.366 275.18 345.126 274.56 344.272 273.32C343.432 272.067 343.012 270.273 343.012 267.94C343.012 266.353 343.199 265.027 343.572 263.96C343.959 262.893 344.519 262.087 345.252 261.54C345.999 260.993 346.912 260.72 347.992 260.72C349.632 260.72 350.872 261.333 351.712 262.56C352.552 263.773 352.972 265.56 352.972 267.92C352.972 269.48 352.779 270.8 352.392 271.88C352.019 272.96 351.466 273.78 350.732 274.34C349.999 274.9 349.086 275.18 347.992 275.18ZM347.992 273.6C349.059 273.6 349.852 273.14 350.372 272.22C350.892 271.3 351.152 269.867 351.152 267.92C351.152 265.973 350.892 264.553 350.372 263.66C349.866 262.753 349.072 262.3 347.992 262.3C346.926 262.3 346.132 262.753 345.612 263.66C345.092 264.553 344.832 265.973 344.832 267.92C344.832 269.867 345.092 271.3 345.612 272.22C346.132 273.14 346.926 273.6 347.992 273.6ZM362.324 275.14C362.031 275.14 361.804 275.06 361.644 274.9C361.484 274.74 361.404 274.507 361.404 274.2V272.06H355.844C355.551 272.06 355.311 271.993 355.124 271.86C354.951 271.727 354.864 271.52 354.864 271.24C354.864 271.08 354.904 270.913 354.984 270.74C355.064 270.567 355.204 270.333 355.404 270.04L361.344 261.38C361.491 261.18 361.644 261.027 361.804 260.92C361.978 260.813 362.171 260.76 362.384 260.76C362.624 260.76 362.824 260.84 362.984 261C363.158 261.147 363.244 261.38 363.244 261.7V270.48H364.604C364.898 270.48 365.118 270.547 365.264 270.68C365.411 270.813 365.484 271.007 365.484 271.26C365.484 271.527 365.411 271.727 365.264 271.86C365.118 271.993 364.898 272.06 364.604 272.06H363.244V274.2C363.244 274.507 363.164 274.74 363.004 274.9C362.844 275.06 362.618 275.14 362.324 275.14ZM361.404 270.48V263.08H361.904L356.504 270.98V270.48H361.404Z" fill="#0A0A0A"/>
</g>
</g>
<g id="location-id-wall-704">
<rect width="176" height="180" transform="translate(260 528)" fill="white"/>
</g>
<g id="location-id-701-wall">
<rect x="260" y="706" width="176" height="240" rx="12" fill="white"/>
</g>
<g id="location-id-702-wall">
<rect x="260" y="944" width="176" height="200" rx="12" fill="white"/>
</g>
<g id="location-id-703-wall">
<rect x="260" y="1142" width="176" height="320" rx="12" fill="white"/>
</g>
<g id="Frame_3">
<rect x="260" y="1460" width="176" height="513" rx="12" fill="white"/>
</g>
<g id="location-id-wall-stairs7">
<rect x="260" y="1971" width="176" height="130" rx="12" fill="white"/>
</g>
<g id="location-id-wall-705">
<rect x="260" y="2099" width="176" height="110" rx="12" fill="white"/>
</g>
<g id="location-id-705">
<rect x="259" y="2208" width="178" height="198" rx="11" stroke="#737373" stroke-width="2"/>
<g id="Frame 1_5">
<rect x="322" y="2293" width="52" height="28" rx="4" fill="#A9B0E9"/>
<path id="number_5" d="M333.38 2314.14C333.167 2314.14 332.98 2314.09 332.82 2313.98C332.673 2313.87 332.58 2313.73 332.54 2313.56C332.513 2313.37 332.56 2313.16 332.68 2312.92L339.02 2300.74V2301.48H331.98C331.713 2301.48 331.507 2301.41 331.36 2301.28C331.213 2301.13 331.14 2300.94 331.14 2300.7C331.14 2300.45 331.213 2300.25 331.36 2300.12C331.507 2299.97 331.713 2299.9 331.98 2299.9H339.88C340.147 2299.9 340.36 2299.97 340.52 2300.12C340.693 2300.25 340.78 2300.45 340.78 2300.7C340.78 2300.91 340.753 2301.1 340.7 2301.26C340.647 2301.41 340.567 2301.58 340.46 2301.78L334.42 2313.52C334.313 2313.73 334.173 2313.89 334 2314C333.84 2314.09 333.633 2314.14 333.38 2314.14ZM347.992 2314.18C346.366 2314.18 345.126 2313.56 344.272 2312.32C343.432 2311.07 343.012 2309.27 343.012 2306.94C343.012 2305.35 343.199 2304.03 343.572 2302.96C343.959 2301.89 344.519 2301.09 345.252 2300.54C345.999 2299.99 346.912 2299.72 347.992 2299.72C349.632 2299.72 350.872 2300.33 351.712 2301.56C352.552 2302.77 352.972 2304.56 352.972 2306.92C352.972 2308.48 352.779 2309.8 352.392 2310.88C352.019 2311.96 351.466 2312.78 350.732 2313.34C349.999 2313.9 349.086 2314.18 347.992 2314.18ZM347.992 2312.6C349.059 2312.6 349.852 2312.14 350.372 2311.22C350.892 2310.3 351.152 2308.87 351.152 2306.92C351.152 2304.97 350.892 2303.55 350.372 2302.66C349.866 2301.75 349.072 2301.3 347.992 2301.3C346.926 2301.3 346.132 2301.75 345.612 2302.66C345.092 2303.55 344.832 2304.97 344.832 2306.92C344.832 2308.87 345.092 2310.3 345.612 2311.22C346.132 2312.14 346.926 2312.6 347.992 2312.6ZM360.244 2314.18C359.498 2314.18 358.744 2314.07 357.984 2313.86C357.238 2313.63 356.558 2313.29 355.944 2312.84C355.771 2312.72 355.651 2312.58 355.584 2312.42C355.531 2312.25 355.524 2312.08 355.564 2311.92C355.604 2311.76 355.684 2311.63 355.804 2311.52C355.924 2311.4 356.064 2311.33 356.224 2311.32C356.398 2311.31 356.578 2311.36 356.764 2311.48C357.298 2311.85 357.851 2312.13 358.424 2312.32C358.998 2312.49 359.598 2312.58 360.224 2312.58C360.851 2312.58 361.391 2312.46 361.844 2312.22C362.298 2311.98 362.644 2311.65 362.884 2311.22C363.138 2310.79 363.264 2310.29 363.264 2309.72C363.264 2308.84 363.004 2308.12 362.484 2307.56C361.964 2307 361.258 2306.72 360.364 2306.72C359.818 2306.72 359.311 2306.82 358.844 2307.02C358.391 2307.21 357.964 2307.53 357.564 2307.98C357.471 2308.09 357.351 2308.18 357.204 2308.26C357.071 2308.34 356.918 2308.38 356.744 2308.38C356.491 2308.38 356.298 2308.31 356.164 2308.18C356.031 2308.03 355.964 2307.84 355.964 2307.6V2300.74C355.964 2300.47 356.038 2300.27 356.184 2300.12C356.331 2299.97 356.538 2299.9 356.804 2299.9H363.544C363.811 2299.9 364.018 2299.97 364.164 2300.1C364.311 2300.23 364.384 2300.43 364.384 2300.68C364.384 2300.93 364.311 2301.13 364.164 2301.28C364.018 2301.41 363.811 2301.48 363.544 2301.48H357.784V2306.82H357.264C357.624 2306.29 358.104 2305.87 358.704 2305.58C359.318 2305.29 359.991 2305.14 360.724 2305.14C361.618 2305.14 362.384 2305.33 363.024 2305.72C363.678 2306.09 364.184 2306.62 364.544 2307.3C364.904 2307.97 365.084 2308.75 365.084 2309.64C365.084 2310.52 364.884 2311.31 364.484 2312C364.098 2312.68 363.544 2313.21 362.824 2313.6C362.104 2313.99 361.244 2314.18 360.244 2314.18Z" fill="#0A0A0A"/>
</g>
</g>
</g>
<g id="Right">
<g id="Frame_4">
<mask id="path-26-inside-3_157_2" fill="white">
<path d="M436 26H596V1983H448C441.373 1983 436 1977.63 436 1971V26Z"/>
</mask>
<path d="M436 26H596H436M596 1985H448C440.268 1985 434 1978.73 434 1971H438C438 1976.52 442.477 1981 448 1981H596V1985ZM448 1985C440.268 1985 434 1978.73 434 1971V26H438V1971C438 1976.52 442.477 1981 448 1981V1985ZM448 1981M596 26V1983V26" fill="#737373" mask="url(#path-26-inside-3_157_2)"/>
</g>
<g id="Right Inner" clip-path="url(#clip2_157_2)">
<g id="location-id-stairs63-stairs7">
<line id="Line 5" x1="498" y1="1981" x2="498" y2="2101" stroke="#737373" stroke-width="2"/>
<line id="Line 2" x1="513" y1="1981" x2="513" y2="2101" stroke="#737373" stroke-width="2"/>
<line id="Line 4" x1="528" y1="1981" x2="528" y2="2101" stroke="#737373" stroke-width="2"/>
<line id="Line 3" x1="543" y1="1981" x2="543" y2="2101" stroke="#737373" stroke-width="2"/>
<line id="Line 1" x1="558" y1="1981" x2="558" y2="2101" stroke="#737373" stroke-width="2"/>
<line id="Line 8" x1="573" y1="1981" x2="573" y2="2101" stroke="#737373" stroke-width="2"/>
<line id="Line 6" x1="497" y1="2039" x2="572" y2="2039" stroke="#737373" stroke-width="4"/>
</g>
</g>
<g id="Frame_5">
<mask id="path-35-inside-4_157_2" fill="white">
<path d="M436 2111C436 2104.37 441.373 2099 448 2099H596V2219H436V2111Z"/>
</mask>
<path d="M434 2111C434 2103.27 440.268 2097 448 2097H596V2101H448C442.477 2101 438 2105.48 438 2111H434ZM438 2111M596 2219H436H596M434 2219V2111C434 2103.27 440.268 2097 448 2097V2101C442.477 2101 438 2105.48 438 2111V2219H434ZM438 2219M596 2099V2219V2099" fill="#737373" mask="url(#path-35-inside-4_157_2)"/>
</g>
</g>
<path id="Line 13" d="M259 697V726" stroke="#737373" stroke-width="2"/>
<path id="Line 14" d="M259 1443V1472" stroke="#737373" stroke-width="2"/>
</g>
<defs>
<clipPath id="clip0_157_2">
<rect width="180" height="2210" fill="white" transform="translate(80 8)"/>
</clipPath>
<clipPath id="clip1_157_2">
<rect width="180" height="2399" fill="white" transform="translate(258 8)"/>
</clipPath>
<clipPath id="clip2_157_2">
<rect width="160" height="120" fill="white" transform="translate(436 1981)"/>
</clipPath>
</defs>
</svg>
